<?xml version="1.0" standalone="no"?><!DOCTYPE svg PUBLIC "-//W3C//DTD SVG 1.1//EN"
        "http://www.w3.org/Graphics/SVG/1.1/DTD/svg11.dtd">
<svg t="1616048284875" class="icon" viewBox="0 0 1024 1024" version="1.1" xmlns="http://www.w3.org/2000/svg" p-id="569"
     width="200" height="200" xmlns:xlink="http://www.w3.org/1999/xlink">
    <defs>
        <style type="text/css"></style>
    </defs>
    <path d="M415.40992 786.12096c0 34.1632 18.84544 60.92416 42.90688 60.92416h333.66656c24.06144 0 42.91072-26.75968 42.91072-60.92416 0-34.1696-18.85056-60.93952-42.91072-60.93952H458.3168c-24.06144-0.00128-42.90688 26.76864-42.90688 60.93952z m395.51872 0c0 21.15072-10.00064 36.95616-18.94528 36.95616H458.3168c-8.93824 0-18.94016-15.80544-18.94016-36.95616 0-21.16224 10.00192-36.97408 18.94016-36.97408h333.66656c8.94336 0 18.94528 15.81184 18.94528 36.97408z"
          fill="#333333" p-id="570"></path>
    <path d="M742.71232 820.50816c18.96192 0 34.38848-15.42528 34.38848-34.3872s-15.42656-34.38848-34.38848-34.38848-34.3872 15.42656-34.3872 34.38848 15.424 34.3872 34.3872 34.3872z m0-45.8496c6.31936 0 11.4624 5.14432 11.4624 11.4624s-5.14432 11.4624-11.4624 11.4624-11.4624-5.14432-11.4624-11.4624 5.14304-11.4624 11.4624-11.4624zM509.36192 820.50816c18.96192 0 34.3872-15.42528 34.3872-34.3872s-15.42528-34.38848-34.3872-34.38848c-18.9632 0-34.38848 15.42656-34.38848 34.38848s15.42528 34.3872 34.38848 34.3872z m0-45.8496c6.31936 0 11.4624 5.14432 11.4624 11.4624s-5.14432 11.4624-11.4624 11.4624c-6.32064 0-11.46368-5.14432-11.46368-11.4624s5.14304-11.4624 11.46368-11.4624z"
          fill="#333333" p-id="571"></path>
    <path d="M882.688 583.67744h-87.05152c-0.24064-0.57088-0.4928-1.13664-0.83328-1.67424L657.62048 364.27008c-0.01152-0.01664-0.02688-0.02816-0.03328-0.0448-0.14464-0.22144-0.32512-0.41344-0.48128-0.6272-0.224-0.29952-0.44288-0.5952-0.69376-0.87552-0.07936-0.08704-0.1344-0.19072-0.21248-0.27392-0.0064-0.00256-0.0064-0.00512-0.01152-0.00768-0.17408-0.1856-0.39296-0.32768-0.5824-0.4992-0.27392-0.25088-0.54272-0.49792-0.8448-0.72448-0.10112-0.07552-0.1856-0.17408-0.29184-0.24576 0-0.00256-0.00512-0.00256-0.01152-0.00512-0.23552-0.16512-0.50432-0.27392-0.75008-0.4224-0.20608-0.12032-0.38656-0.27776-0.60416-0.38656-0.0896-0.0448-0.1856-0.064-0.2752-0.10624-0.11776-0.05632-0.22912-0.12928-0.34688-0.18176-0.01792-0.00512-0.02816-0.01664-0.0448-0.02304L222.39104 175.36512c0.0448-0.82816 0.12544-1.64608 0.12544-2.48192 0-25.2672-20.56832-45.82272-45.85344-45.82272-25.28128 0-45.84832 20.55552-45.84832 45.82272 0 17.99808 10.464 33.56032 25.6064 41.04832-0.00512 0.13184-0.0384 0.25472-0.0384 0.38656v299.98848H137.6128a11.46368 11.46368 0 0 0-11.4624 11.4624v168.3584a11.46368 11.46368 0 0 0 11.4624 11.4624h60.46464a11.46368 11.46368 0 0 0 11.46368-11.4624v-168.3584a11.46368 11.46368 0 0 0-11.46368-11.4624h-18.76992V243.072l317.00096 434.09664h-31.33312c-54.5792 0-98.98368 48.87296-98.98368 108.95104 0 60.06784 44.4032 108.93952 98.98368 108.93952H785.3312c54.57664 0 98.97728-48.87296 98.97728-108.93952 0-60.07936-44.40064-108.95104-98.97728-108.95104h-120.43648v-4.62336H882.688a11.46368 11.46368 0 0 0 11.4624-11.4624v-65.94432a11.4624 11.4624 0 0 0-11.4624-11.46112z m-696.07296 98.9888h-37.53984v-145.4336h37.53984v145.4336z m466.81984-192.9856h-53.1776l48.73856-96.0896 119.76064 190.0864h-103.8592v-82.53312a11.46368 11.46368 0 0 0-11.4624-11.46368zM176.66432 149.98656c12.64384 0 22.92864 10.26944 22.92864 22.89664 0 3.06688-0.62976 5.984-1.72928 8.6592-0.224 0.54912-0.53248 1.04064-0.79488 1.56416-0.39808 0.78976-0.7808 1.58976-1.26208 2.3232-0.1984 0.30464-0.43904 0.57344-0.6528 0.8704-0.67456 0.92032-1.37728 1.82144-2.17728 2.63424-0.11136 0.11392-0.23296 0.21504-0.34688 0.3264-0.96 0.9344-1.98784 1.79968-3.0976 2.55616-0.0448 0.03072-0.0896 0.05888-0.1344 0.08576a22.816 22.816 0 0 1-3.7312 2.02624l-0.16512 0.0704c-1.25312 0.52352-2.56896 0.92032-3.9232 1.21728-0.16 0.03328-0.31616 0.08064-0.47616 0.11136-1.18656 0.23296-2.41792 0.32768-3.66336 0.36992-0.34944 0.00768-0.6912 0.05888-1.0432 0.0512-0.90112-0.01152-1.76256-0.15488-2.63296-0.26624-0.66688-0.08704-1.32352-0.11136-1.99552-0.25984-10.28992-2.25024-18.02496-11.3984-18.02496-22.33856-0.00128-12.62848 10.28096-22.89792 22.92224-22.89792z m12.89472 66.83904c1.0496-0.30848 2.07104-0.67456 3.08608-1.05216a46.87232 46.87232 0 0 0 3.31904-1.38752c0.91776-0.42752 1.83936-0.8512 2.72256-1.3376 0.8704-0.4736 1.696-1.0048 2.52928-1.536a43.4944 43.4944 0 0 0 1.70496-1.12256 47.3216 47.3216 0 0 0 2.45248-1.83296c0.512-0.41216 0.9984-0.8512 1.4912-1.28512 0.60416-0.5312 1.25312-1.01376 1.83296-1.57824L381.248 446.77888c-0.73984 1.36064-1.37728 2.78144-2.02368 4.1984-0.22912 0.4928-0.49792 0.97408-0.7168 1.47712-0.4032 0.93952-0.72704 1.91488-1.09184 2.87744-0.40832 1.08032-0.83968 2.14912-1.19296 3.24608-0.27904 0.87296-0.49536 1.77408-0.74112 2.65856-0.3392 1.21984-0.67712 2.43456-0.94592 3.67104-0.19328 0.896-0.33536 1.80224-0.4928 2.70336-0.1536 0.86784-0.35456 1.72416-0.47616 2.60224l-184.83328-253.1072c0.28288-0.07552 0.54656-0.19968 0.8256-0.28032z m206.79808 256.35456c0.064-0.47616 0.1344-0.93952 0.21504-1.41056 0.35584-2.07616 0.81152-4.13056 1.4528-6.12864 0.01664-0.04992 0.03584-0.0896 0.04992-0.13312a45.6576 45.6576 0 0 1 2.44864-5.98912c0.11264-0.22912 0.21504-0.45824 0.33024-0.68224a46.41024 46.41024 0 0 1 3.45344-5.72544c8.31232-11.72096 21.96608-19.4112 37.408-19.4112 25.28768 0 45.85728 20.54656 45.85728 45.80096 0 20.7424-13.88672 38.27712-32.84992 43.8976a46.8864 46.8864 0 0 1-5.77024 1.27616c-0.40832 0.06656-0.81792 0.13312-1.23136 0.18944-1.99808 0.2624-4.00128 0.43648-6.00576 0.43648-25.28128 0-45.84704-20.54656-45.84704-45.79968 0-2.13376 0.1984-4.23936 0.48896-6.32064z m33.4208 74.0096c1.10208 0.19584 2.2336 0.30208 3.35616 0.44288 0.65792 0.0832 1.30688 0.19456 1.97248 0.25728 2.10432 0.20096 4.22528 0.31872 6.35776 0.32384 0.08448 0 0.16768 0.01152 0.25216 0.01152 0.59392 0 1.16992-0.07296 1.75744-0.08832 1.48352-0.03968 2.96704-0.0896 4.45056-0.224 1.00224-0.0896 1.98656-0.24064 2.97216-0.36992 0.7552-0.10624 1.5168-0.15616 2.26688-0.28544L466.41024 565.76l18.2464 56.57984-54.87872-75.15008z m56.31104 6.6816l-10.4832-14.64064c20.80384-11.83232 34.8928-34.15424 34.8928-59.7312 0-37.89696-30.85696-68.72576-68.78208-68.72576-17.49376 0-33.4336 6.61504-45.58464 17.40672L237.75872 206.90176l394.4128 169.19296-57.61024 113.58592h-42.92864a11.46368 11.46368 0 0 0-11.4624 11.4624v156.6208L487.68 557.02272a11.5328 11.5328 0 0 0-1.59104-3.15136z m375.29728 232.2496c0 47.42912-34.1184 86.01472-76.05248 86.01472H464.97664c-41.93792 0-76.0576-38.58688-76.0576-86.01472 0-47.43552 34.11968-86.02624 76.0576-86.02624H785.33248c41.93408 0 76.05376 38.59072 76.05376 86.02624z m-318.29248-108.95104V512.60544h98.87744v164.5632h-98.87744z m328.13184-27.54944H664.89728v-43.01824h206.32832v43.01824z"
          fill="#333333" p-id="572"></path>
</svg>